# Blender v2.78 (sub 0) OBJ File: ''
# www.blender.org
mtllib cube.mtl
o Cube
v 0.406515 -0.777268 0.053640
v 0.180885 -0.178535 0.841239
v -0.747746 -0.028080 0.460830
v -0.522115 -0.626813 -0.326770
v 0.747746 0.028081 -0.460830
v 0.522115 0.626813 0.326770
v -0.406516 0.777268 -0.053640
v -0.180885 0.178535 -0.841239
vn -0.3363 -0.7936 0.5070
vn 0.3363 0.7936 -0.5070
vn 0.9151 -0.1483 0.3749
vn -0.2224 0.5900 0.7762
vn -0.9151 0.1483 -0.3749
vn 0.2224 -0.5900 -0.7762
usemtl Material
s off
f 1//1 2//1 3//1 4//1
f 5//2 8//2 7//2 6//2
f 1//3 5//3 6//3 2//3
f 2//4 6//4 7//4 3//4
f 3//5 7//5 8//5 4//5
f 5//6 1//6 4//6 8//6
